# Blender v2.79 (sub 0) OBJ File: 'clock.blend'
# www.blender.org
mtllib immunity.mtl
o ClockIcon_Plane.012
v -0.121352 -0.306457 0.070655
v -0.306457 -0.121352 0.070655
v 0.306457 -0.121352 0.070655
v 0.121352 -0.306457 0.070655
v -0.121352 0.306457 0.070655
v -0.306457 0.121352 0.070655
v 0.121352 0.306457 0.070655
v 0.306457 0.121352 0.070655
v -0.121352 -0.306457 -0.084460
v -0.306457 -0.121352 -0.084460
v 0.306457 -0.121352 -0.084460
v 0.121352 -0.306457 -0.084460
v -0.121352 0.306457 -0.084460
v -0.306457 0.121353 -0.084460
v 0.121352 0.306457 -0.084460
v 0.306457 0.121353 -0.084460
v -0.038732 -0.027499 0.084460
v 0.041338 -0.027499 0.084460
v 0.041338 0.235099 0.084460
v -0.038732 0.235099 0.084460
v -0.038732 -0.027499 0.068236
v 0.041338 0.235099 0.068236
v 0.041338 -0.027499 0.068236
v -0.038732 0.235099 0.068236
v 0.041338 -0.027499 -0.096982
v -0.038732 -0.027499 -0.096982
v -0.038732 0.235099 -0.096982
v 0.041338 0.235099 -0.096982
v 0.041338 -0.027499 -0.080758
v -0.038732 0.235099 -0.080758
v -0.038732 -0.027499 -0.080758
v 0.041338 0.235099 -0.080758
v 0.172470 0.074898 0.082332
v 0.139517 0.127073 0.082332
v -0.031597 0.019001 0.082332
v 0.001356 -0.033174 0.082332
v 0.172470 0.074898 0.066488
v -0.031597 0.019001 0.066488
v 0.139517 0.127073 0.066488
v 0.001356 -0.033174 0.066488
v 0.139517 0.127073 -0.094854
v 0.172470 0.074898 -0.094854
v 0.001356 -0.033174 -0.094854
v -0.031597 0.019001 -0.094854
v 0.139517 0.127073 -0.079010
v 0.001356 -0.033174 -0.079010
v 0.172470 0.074898 -0.079010
v -0.031597 0.019001 -0.079010
vt 0.195356 0.937027
vt 0.198245 0.934390
vt 0.198245 0.973970
vt 0.195862 0.970160
vt 0.183903 0.969697
vt 0.181014 0.972334
vt 0.181014 0.932754
vt 0.183397 0.936563
vt 0.827371 0.960139
vt 0.824483 0.962775
vt 0.824483 0.923195
vt 0.826865 0.927005
vt 0.838825 0.927468
vt 0.841713 0.924832
vt 0.841713 0.964411
vt 0.839330 0.960602
vt 0.941576 0.301777
vt 0.938765 0.304387
vt 0.938765 0.273081
vt 0.941076 0.276871
vt 0.950090 0.277124
vt 0.952900 0.274514
vt 0.952900 0.305819
vt 0.950590 0.302029
vt 0.907462 0.961595
vt 0.904651 0.964205
vt 0.904651 0.932900
vt 0.906961 0.936690
vt 0.915976 0.936943
vt 0.918786 0.934332
vt 0.918786 0.965638
vt 0.916476 0.961848
vt 0.693747 0.388838
vt 0.630621 0.325712
vt 0.668750 0.325712
vt 0.693747 0.350709
vt 0.668750 0.413836
vt 0.605623 0.350709
vt 0.668750 0.119276
vt 0.693747 0.144273
vt 0.630621 0.207399
vt 0.605623 0.182402
vt 0.630621 0.413836
vt 0.605623 0.388839
vt 0.630621 0.119276
vt 0.605624 0.144273
vt 0.882529 0.639083
vt 0.882529 0.603732
vt 0.905122 0.603731
vt 0.905122 0.639083
vt 0.882529 0.565602
vt 0.882529 0.530251
vt 0.905122 0.530251
vt 0.905122 0.565602
vt 0.893322 0.119276
vt 0.893322 0.157405
vt 0.870729 0.157405
vt 0.870729 0.119276
vt 0.893322 0.192756
vt 0.893322 0.230885
vt 0.870729 0.230885
vt 0.870729 0.192756
vt 0.882529 0.677212
vt 0.905122 0.677212
vt 0.893322 0.266236
vt 0.870729 0.266236
vt 0.693747 0.182402
vt 0.668750 0.207399
vn 1.0000 0.0000 0.0000
vn -1.0000 0.0000 0.0000
vn 0.0000 -1.0000 0.0000
vn 0.0000 -0.0000 1.0000
vn 0.0000 1.0000 0.0000
vn -0.0000 0.0000 -1.0000
vn -0.5340 0.8455 0.0000
vn 0.5340 -0.8455 -0.0000
vn 0.8455 0.5340 0.0000
vn -0.8455 -0.5340 -0.0000
vn -0.7071 0.7071 0.0000
vn 0.7071 0.7071 0.0000
vn 0.7071 -0.7071 0.0000
vn -0.7071 -0.7071 0.0000
usemtl Material4
s 1
f 18/1/1 23/2/1 22/3/1 19/4/1
f 20/5/2 24/6/2 21/7/2 17/8/2
f 17/8/3 21/7/3 23/2/3 18/1/3
f 17/8/4 18/1/4 19/4/4 20/5/4
f 19/4/5 22/3/5 24/6/5 20/5/5
f 26/9/2 31/10/2 30/11/2 27/12/2
f 28/13/1 32/14/1 29/15/1 25/16/1
f 25/16/3 29/15/3 31/10/3 26/9/3
f 25/16/6 26/9/6 27/12/6 28/13/6
f 27/12/5 30/11/5 32/14/5 28/13/5
f 34/17/7 39/18/7 38/19/7 35/20/7
f 36/21/8 40/22/8 37/23/8 33/24/8
f 33/24/9 37/23/9 39/18/9 34/17/9
f 33/24/4 34/17/4 35/20/4 36/21/4
f 35/20/10 38/19/10 40/22/10 36/21/10
f 42/25/8 47/26/8 46/27/8 43/28/8
f 44/29/7 48/30/7 45/31/7 41/32/7
f 41/32/9 45/31/9 47/26/9 42/25/9
f 41/32/6 42/25/6 43/28/6 44/29/6
f 43/28/10 46/27/10 48/30/10 44/29/10
usemtl Material05
f 7/33/4 4/34/4 3/35/4 8/36/4
f 5/37/4 1/38/4 4/34/4 7/33/4
f 13/39/6 15/40/6 12/41/6 9/42/6
f 6/43/4 2/44/4 1/38/4 5/37/4
f 14/45/6 13/39/6 9/42/6 10/46/6
f 4/47/3 1/48/3 9/49/3 12/50/3
f 2/51/2 6/52/2 14/53/2 10/54/2
f 6/55/11 5/56/11 13/57/11 14/58/11
f 7/59/12 8/60/12 16/61/12 15/62/12
f 3/63/13 4/47/13 12/50/13 11/64/13
f 1/48/14 2/51/14 10/54/14 9/49/14
f 5/56/5 7/59/5 15/62/5 13/57/5
f 8/60/1 3/65/1 11/66/1 16/61/1
f 12/41/6 15/40/6 16/67/6 11/68/6
