# Blender v2.79 (sub 0) OBJ File: ''
# www.blender.org
mtllib life.mtl
o Love
v 14.454400 64.201797 11.879210
v -0.601600 54.790897 12.931909
v -0.468800 43.497196 18.953508
v 25.203600 25.057302 -12.418396
v 15.275500 11.974001 -8.713698
v 12.055400 18.083801 -15.394998
v -15.682600 21.197798 15.885804
v -2.877500 10.359098 13.052102
v -0.317900 21.449696 18.423004
v 26.208799 19.887798 6.104403
v 15.779200 9.045800 -1.908899
v 31.225401 24.455000 -1.542796
v -2.790900 1.632001 -4.364399
v -18.039900 15.902302 -11.262597
v -2.161200 3.776501 -8.451699
v 19.282000 48.688103 -18.493092
v -0.550800 44.611702 -18.457993
v 15.686500 59.658405 -15.321091
v 25.264799 53.617905 -16.447491
v 24.844801 42.214203 -17.696793
v 33.555599 52.307995 12.726209
v 34.609200 38.586399 11.641307
v 39.435001 48.780800 6.070408
v -27.888700 66.673897 2.044011
v -37.032299 57.572701 5.209209
v -24.606001 64.314102 11.034611
v -25.622999 39.812298 17.519306
v -9.903700 31.231697 19.721605
v -21.497299 52.617294 18.034508
v -7.008300 15.882903 -15.624797
v -16.458401 27.603205 -17.633896
v -5.858600 37.325302 -19.834293
v -21.216101 51.511505 -18.171293
v 14.813800 31.766705 -19.039194
v -0.268700 24.305004 -19.257795
v -12.899000 32.600105 -19.290695
v -33.555801 62.259998 -3.654190
v -40.129700 51.886902 -3.332192
v 32.578300 44.377106 -14.229392
v 37.729099 51.310501 -9.681492
v 12.935200 67.087303 6.994711
v 14.164800 68.599403 -1.400689
v 0.024000 59.942501 6.434609
v 8.146000 36.783302 -19.781794
v 6.164900 3.251401 -3.818799
v 3.549900 3.311899 7.322900
v 15.051700 10.931299 7.715402
v 27.079000 21.358702 -6.408697
v 36.546501 37.573799 -8.645595
v 40.200500 42.250999 -0.179293
v -18.912001 15.574498 9.669103
v -17.655001 10.136200 0.164202
v -4.547200 3.455199 6.786700
v 5.204100 5.994601 -9.205099
v 3.739800 12.446102 -14.277898
v 18.991100 27.723501 -16.806896
v 28.316299 35.549103 -15.448394
v -28.229500 37.460003 -16.516193
v -0.002900 60.121700 -6.330490
v -12.112500 67.761398 -3.145489
v -28.586100 21.817301 3.879704
v -28.146099 21.416599 -4.437897
v -39.522701 40.431400 -3.903393
v -36.909500 34.417801 4.003406
v 27.671101 67.336304 -2.117589
v 34.491100 59.828499 7.085909
v 38.431999 56.321701 -4.010891
v 8.181400 14.098298 14.369502
v 17.095600 26.333498 17.248804
v 11.086100 33.749397 19.750105
v 27.683201 39.957497 16.837706
v 23.334200 51.027596 17.768108
v -13.683600 59.698795 14.782809
v -12.431700 65.819901 9.142811
v -38.937599 45.338200 7.554307
v -33.402100 51.433495 13.278508
v -14.496200 63.398106 -13.187690
v -32.568401 55.128506 -12.598592
v 23.732201 67.184998 6.287511
v 13.858200 66.428902 -9.063089
v 0.383000 54.395405 -13.348991
v 25.577000 63.763500 -10.821790
v -32.256699 35.218098 12.618606
v -22.750200 67.682701 -6.150289
v -27.419300 62.040501 -11.225389
v -18.771999 68.787399 3.212711
v 24.438200 25.389498 12.968704
v 37.611198 36.898602 5.103406
v -32.862400 31.679802 -9.140595
v -35.996101 44.066605 -11.840093
v 24.123800 61.401897 12.866509
v 16.645000 56.145195 16.970310
vn -0.2251 0.4564 0.8609
vn 0.4482 -0.5415 -0.7112
vn -0.1425 -0.4046 0.9033
vn 0.7052 -0.7079 0.0399
vn -0.4844 -0.7418 -0.4638
vn -0.0553 0.2606 -0.9639
vn 0.2500 0.0963 -0.9634
vn 0.7509 0.0054 0.6604
vn -0.5745 0.7155 0.3976
vn -0.1365 0.0041 0.9906
vn -0.3352 -0.4152 -0.8457
vn 0.0390 0.1579 -0.9867
vn 0.1369 -0.0042 -0.9906
vn -0.0368 -0.0600 -0.9975
vn -0.0899 0.0194 -0.9958
vn -0.8443 0.5336 -0.0490
vn 0.4952 0.1884 -0.8481
vn -0.4853 0.8702 0.0857
vn 0.0076 0.1006 -0.9949
vn -0.0465 0.2180 -0.9748
vn 0.1858 -0.8816 -0.4339
vn 0.5362 -0.8198 0.2011
vn 0.6998 -0.6979 -0.1523
vn 0.9330 -0.1063 -0.3440
vn -0.5605 -0.7486 0.3542
vn 0.1750 -0.9835 0.0464
vn 0.0998 -0.6009 -0.7931
vn -0.1531 -0.2856 -0.9460
vn 0.7879 -0.5080 -0.3481
vn 0.4273 -0.3656 -0.8269
vn -0.0623 -0.5271 -0.8475
vn -0.3023 -0.5726 -0.7621
vn 0.3038 -0.2004 -0.9314
vn -0.0093 -0.3898 -0.9208
vn 0.6242 -0.6998 -0.3473
vn 0.4947 -0.8606 0.1208
vn 0.6428 -0.3824 -0.6638
vn 0.7392 -0.1137 -0.6638
vn 0.1538 -0.2831 -0.9467
vn 0.0021 -0.0433 -0.9991
vn 0.6531 -0.2150 -0.7261
vn 0.3874 0.0863 -0.9179
vn 0.5829 -0.5981 -0.5500
vn 0.7058 -0.4835 -0.5178
vn 0.1137 -0.3518 -0.9292
vn 0.2715 -0.5561 -0.7856
vn 0.5325 -0.7625 -0.3675
vn 0.2093 -0.8557 -0.4732
vn 0.4267 -0.0816 -0.9007
vn 0.2960 -0.1633 -0.9411
vn -0.1852 -0.0233 -0.9824
vn -0.4078 -0.3935 -0.8239
vn -0.1415 -0.2193 -0.9653
vn -0.2244 -0.1589 -0.9614
vn 0.3813 -0.5833 -0.7172
vn 0.4684 -0.7507 -0.4659
vn 0.1125 0.0024 -0.9937
vn 0.0527 -0.0773 -0.9956
vn 0.4025 -0.4095 -0.8187
vn 0.2157 -0.2917 -0.9319
vn -0.5168 0.8560 0.0131
vn 0.5356 0.8444 0.0107
vn -0.7311 -0.6823 -0.0058
vn -0.8547 -0.5085 -0.1042
vn 0.7179 0.6953 0.0352
vn 0.9013 0.3851 0.1984
vn 0.1560 -0.3325 0.9301
vn 0.1775 -0.0130 0.9840
vn 0.2893 0.4530 0.8433
vn 0.4485 0.8810 0.1508
vn -0.9630 -0.2264 0.1461
vn -0.3769 0.0843 0.9224
vn 0.0993 0.3365 -0.9364
vn -0.7582 0.4664 -0.4556
vn 0.4309 0.0939 0.8975
vn 0.5311 0.8053 0.2634
vn -0.3022 0.6017 -0.7393
vn 0.6112 0.6696 -0.4219
vn -0.6406 -0.6999 0.3157
vn -0.8250 -0.3074 0.4741
vn -0.1766 0.7350 -0.6547
vn 0.0292 0.9912 -0.1294
vn 0.4400 -0.5450 0.7137
vn 0.7476 -0.4737 0.4656
vn -0.3740 0.4011 0.8362
vn 0.3290 0.6026 0.7271
vn -0.8063 -0.3133 -0.5018
vn -0.7922 0.2061 -0.5744
vn 0.3724 0.3731 0.8497
vn -0.2479 0.4684 0.8480
vn -0.0099 0.0703 0.9975
vn -0.0120 0.0722 0.9973
vn -0.0124 0.0720 0.9973
vn 0.0173 0.1018 0.9947
vn 0.0962 0.9934 0.0630
vn 0.1445 0.9027 -0.4053
vn -0.4286 0.6884 -0.5852
vn 0.4251 0.7126 -0.5581
vn -0.2504 -0.2165 0.9436
vn -0.6603 -0.5287 0.5333
vn 0.8168 -0.5348 0.2164
vn 0.8882 -0.4371 -0.1419
vn 0.3920 0.8061 -0.4433
vn 0.1114 0.9015 -0.4182
vn -0.5436 -0.7566 -0.3635
vn -0.4799 -0.8747 0.0674
vn -0.4128 0.0994 -0.9054
vn -0.1805 0.4653 -0.8665
vn -0.5755 0.5051 0.6432
vn -0.9567 0.1911 0.2197
vn -0.9956 -0.0565 0.0750
vn -0.9088 -0.0274 -0.4164
vn -0.2532 0.9090 0.3310
vn 0.0314 0.6738 0.7382
vn -0.3344 -0.5877 0.7367
vn 0.3838 -0.6149 0.6889
vn -0.6164 -0.7112 -0.3381
vn -0.5660 -0.4378 -0.6986
vn -0.6742 -0.0775 0.7345
vn -0.8103 0.2295 0.5392
vn 0.0990 0.3230 0.9412
vn -0.0880 0.4942 0.8649
vn -0.3559 -0.5936 0.7218
vn -0.5353 -0.4691 0.7024
vn 0.0732 0.5469 0.8340
vn 0.0027 0.9841 0.1776
vn 0.7882 0.3035 0.5354
vn 0.4805 0.4871 0.7292
vn -0.4829 0.7718 -0.4138
vn -0.2233 0.9745 -0.0201
vn 0.2232 -0.1443 0.9640
vn 0.6849 -0.4721 0.5550
vn -0.4230 -0.3009 0.8547
vn -0.5594 -0.0731 0.8257
vn -0.6720 -0.3160 -0.6697
vn -0.4616 0.0825 -0.8832
vn 0.0776 0.3003 -0.9507
vn 0.0466 0.6848 -0.7273
vn 0.1958 0.4709 -0.8602
vn 0.4926 0.4104 -0.7674
vn -0.0612 -0.6626 0.7465
vn -0.0279 -0.9872 0.1570
vn -0.4263 0.7283 0.5364
vn 0.4471 0.6794 0.5818
vn 0.5978 -0.0175 0.8014
vn 0.5253 -0.3258 0.7861
vn 0.2503 0.4293 -0.8678
vn -0.2689 0.4659 -0.8430
vn 0.1276 -0.2226 0.9665
vn -0.0097 0.0700 0.9975
vn 0.8779 -0.1711 0.4473
vn 0.9924 0.1229 -0.0068
vn 0.9799 0.0726 -0.1856
vn 0.6168 0.5503 -0.5628
vn 0.0969 -0.5732 0.8137
vn 0.0433 -0.4435 0.8952
vn 0.2947 0.9427 0.1566
vn -0.0346 0.8785 0.4766
vn -0.7440 -0.4959 0.4479
vn -0.8343 -0.5510 -0.0176
vn -0.4402 0.8684 -0.2284
vn 0.0751 0.9586 -0.2746
vn 0.0129 -0.1191 0.9928
vn -0.1522 -0.2752 0.9493
vn 0.4292 0.6909 0.5818
vn 0.1502 0.7470 0.6477
vn -0.4753 0.8585 -0.1923
vn -0.6803 0.7237 0.1159
vn -0.6530 -0.5423 -0.5287
vn -0.8363 -0.4936 -0.2386
vn 0.0003 0.1545 0.9880
vn 0.2039 0.4055 0.8911
vn 0.9418 -0.1682 0.2911
vn 0.8933 -0.4492 -0.0173
vn -0.2999 0.3959 -0.8679
vn -0.6286 0.5728 -0.5261
vn 0.3971 -0.4742 0.7858
vn 0.4458 -0.3212 0.8355
vn 0.5501 -0.5766 0.6041
vn 0.6310 -0.7510 0.1948
vn -0.4127 0.7223 0.5550
vn 0.0251 0.8641 0.5027
usemtl wire_143224087
s 1
f 1//1 2//1 3//1
f 4//2 5//2 6//2
f 7//3 8//3 9//3
f 10//4 11//4 12//4
f 13//5 14//5 15//5
f 16//6 17//6 18//6
f 19//7 20//7 16//7
f 21//8 22//8 23//8
f 24//9 25//9 26//9
f 27//10 28//10 29//10
f 30//11 14//11 31//11
f 32//12 33//12 17//12
f 20//13 34//13 16//13
f 35//14 36//14 32//14
f 32//15 36//15 33//15
f 37//16 38//16 25//16
f 39//17 19//17 40//17
f 41//18 42//18 43//18
f 16//19 44//19 32//19
f 16//20 32//20 17//20
f 15//21 45//21 13//21
f 46//22 11//22 47//22
f 11//23 48//23 12//23
f 49//24 40//24 50//24
f 51//25 52//25 53//25
f 13//26 45//26 46//26
f 54//27 15//27 55//27
f 30//28 31//28 35//28
f 48//29 49//29 12//29
f 4//30 56//30 57//30
f 55//31 15//31 30//31
f 15//32 14//32 30//32
f 57//33 56//33 34//33
f 55//34 30//34 35//34
f 11//35 5//35 48//35
f 46//36 45//36 11//36
f 49//37 4//37 57//37
f 40//38 49//38 39//38
f 6//39 35//39 34//39
f 35//40 32//40 44//40
f 39//41 49//41 57//41
f 39//42 20//42 19//42
f 48//43 5//43 4//43
f 48//44 4//44 49//44
f 35//45 6//45 55//45
f 6//46 54//46 55//46
f 11//47 45//47 5//47
f 45//48 15//48 54//48
f 39//49 57//49 20//49
f 20//50 57//50 34//50
f 36//51 58//51 33//51
f 31//52 14//52 58//52
f 35//53 31//53 36//53
f 31//54 58//54 36//54
f 5//55 54//55 6//55
f 54//56 5//56 45//56
f 34//57 44//57 16//57
f 34//58 35//58 44//58
f 4//59 6//59 56//59
f 6//60 34//60 56//60
f 42//61 59//61 43//61
f 60//62 43//62 59//62
f 61//63 62//63 52//63
f 63//64 62//64 64//64
f 65//65 66//65 67//65
f 67//66 66//66 23//66
f 68//67 69//67 9//67
f 70//68 71//68 72//68
f 2//69 73//69 3//69
f 43//70 60//70 74//70
f 63//71 64//71 75//71
f 76//72 27//72 29//72
f 17//73 33//73 77//73
f 37//74 78//74 38//74
f 72//75 71//75 21//75
f 79//76 66//76 65//76
f 80//77 18//77 81//77
f 82//78 65//78 67//78
f 52//79 51//79 61//79
f 64//80 83//80 75//80
f 84//81 77//81 85//81
f 60//82 84//82 86//82
f 68//83 47//83 87//83
f 22//84 10//84 88//84
f 29//85 26//85 76//85
f 2//86 74//86 73//86
f 89//87 63//87 90//87
f 38//88 78//88 90//88
f 21//89 91//89 72//89
f 1//90 3//90 92//90
f 28//91 3//92 29//93
f 3//94 70//94 72//94
f 42//95 79//95 65//95
f 65//96 82//96 80//96
f 81//97 59//97 80//97
f 77//98 59//98 81//98
f 7//99 28//99 27//99
f 61//100 51//100 83//100
f 12//101 88//101 10//101
f 12//102 49//102 50//102
f 59//103 77//103 60//103
f 77//104 84//104 60//104
f 52//105 14//105 13//105
f 52//106 13//106 53//106
f 33//107 58//107 78//107
f 33//108 85//108 77//108
f 76//109 26//109 25//109
f 38//110 75//110 25//110
f 63//111 75//111 38//111
f 38//112 90//112 63//112
f 86//113 24//113 26//113
f 74//114 26//114 73//114
f 53//115 8//115 7//115
f 46//116 47//116 68//116
f 52//117 62//117 14//117
f 58//118 14//118 89//118
f 76//119 75//119 83//119
f 25//120 75//120 76//120
f 29//121 3//121 73//121
f 73//122 26//122 29//122
f 53//123 7//123 51//123
f 83//124 51//124 7//124
f 92//125 91//125 1//125
f 42//126 41//126 79//126
f 66//127 21//127 23//127
f 66//128 91//128 21//128
f 37//129 84//129 85//129
f 84//130 24//130 86//130
f 69//131 71//131 70//131
f 87//132 10//132 22//132
f 83//133 7//133 27//133
f 76//134 83//134 27//134
f 58//135 89//135 90//135
f 58//136 90//136 78//136
f 18//137 19//137 16//137
f 18//138 80//138 82//138
f 19//139 18//139 82//139
f 82//140 40//140 19//140
f 53//141 46//141 8//141
f 53//142 13//142 46//142
f 43//143 2//143 41//143
f 43//144 74//144 2//144
f 71//145 22//145 21//145
f 87//146 22//146 71//146
f 17//147 77//147 81//147
f 17//148 81//148 18//148
f 9//149 69//149 70//149
f 28//91 70//150 3//92
f 88//151 23//151 22//151
f 50//152 67//152 23//152
f 40//153 67//153 50//153
f 82//154 67//154 40//154
f 46//155 68//155 8//155
f 9//156 8//156 68//156
f 74//157 60//157 86//157
f 86//158 26//158 74//158
f 64//159 61//159 83//159
f 62//160 61//160 64//160
f 42//161 80//161 59//161
f 65//162 80//162 42//162
f 9//163 70//163 28//163
f 7//164 9//164 28//164
f 91//165 66//165 79//165
f 79//166 1//166 91//166
f 24//167 84//167 37//167
f 24//168 37//168 25//168
f 89//169 14//169 62//169
f 89//170 62//170 63//170
f 72//171 92//171 3//171
f 72//172 91//172 92//172
f 88//173 50//173 23//173
f 12//174 50//174 88//174
f 33//175 78//175 85//175
f 37//176 85//176 78//176
f 68//177 87//177 69//177
f 69//178 87//178 71//178
f 47//179 10//179 87//179
f 47//180 11//180 10//180
f 41//181 2//181 1//181
f 79//182 41//182 1//182
