# Blender v2.79 (sub 0) OBJ File: 'rocket.blend'
# www.blender.org
mtllib rocket.mtl
o RocketIcon_Plane.006
v -0.294902 -0.129785 0.052360
v 0.035054 -0.320285 0.052360
v 0.012343 0.363334 0.052360
v 0.308485 0.192356 0.052360
v 0.134510 -0.036215 0.052360
v -0.098618 0.098382 0.052360
v -0.030885 -0.255142 0.052360
v -0.205517 -0.154318 0.052360
v -0.182604 0.064721 0.052360
v 0.147352 -0.125779 0.052360
v 0.326697 0.565855 0.052360
v -0.296937 -0.514309 0.052360
v -0.000600 -0.202687 0.052360
v -0.175232 -0.101862 0.052360
v 0.341703 0.368108 0.052360
v 0.147939 0.479978 0.052360
v 0.247912 0.065744 0.052360
v -0.067020 0.247570 0.052360
v -0.309783 -0.224925 0.052360
v -0.039900 -0.380743 0.052360
v -0.294902 -0.129785 -0.052360
v 0.035054 -0.320285 -0.052360
v 0.012343 0.363334 -0.052360
v 0.308485 0.192356 -0.052360
v 0.134510 -0.036215 -0.052360
v -0.098618 0.098382 -0.052360
v -0.030885 -0.255142 -0.052360
v -0.205517 -0.154318 -0.052360
v -0.182604 0.064721 -0.052360
v 0.147352 -0.125779 -0.052360
v 0.326697 0.565855 -0.052360
v -0.296937 -0.514309 -0.052360
v -0.000600 -0.202687 -0.052360
v -0.175232 -0.101862 -0.052360
v 0.341703 0.368108 -0.052360
v 0.147939 0.479978 -0.052360
v 0.247912 0.065744 -0.052360
v -0.067020 0.247570 -0.052360
v -0.309783 -0.224925 -0.052360
v -0.039900 -0.380743 -0.052360
vt 0.204481 0.249580
vt 0.233852 0.249580
vt 0.233852 0.258402
vt 0.204481 0.258402
vt 0.353017 0.171343
vt 0.353017 0.180165
vt 0.323646 0.180165
vt 0.323646 0.171343
vt 0.938765 0.249164
vt 0.954018 0.249164
vt 0.954018 0.257987
vt 0.938765 0.257987
vt 0.938765 0.119276
vt 0.954018 0.119276
vt 0.954018 0.128098
vt 0.938765 0.128098
vt 0.194262 0.330743
vt 0.244070 0.330743
vt 0.235461 0.355332
vt 0.202872 0.355332
vt 0.238771 0.289240
vt 0.199562 0.289240
vt 0.191419 0.278878
vt 0.246913 0.278878
vt 0.219166 0.379183
vt 0.192682 0.310360
vt 0.245650 0.310360
vt 0.191419 0.246164
vt 0.246913 0.246165
vt 0.363235 0.252506
vt 0.354626 0.277095
vt 0.322037 0.277095
vt 0.313428 0.252506
vt 0.318727 0.211004
vt 0.310584 0.200642
vt 0.366079 0.200642
vt 0.357936 0.211004
vt 0.338332 0.300946
vt 0.311848 0.232124
vt 0.364815 0.232124
vt 0.366079 0.167928
vt 0.310584 0.167928
vt 0.908417 0.262762
vt 0.923670 0.262762
vt 0.923670 0.280660
vt 0.908417 0.280660
vt 0.908417 0.216869
vt 0.923670 0.216869
vt 0.923670 0.230048
vt 0.908417 0.230048
vt 0.911370 0.420262
vt 0.926623 0.420262
vt 0.926623 0.440705
vt 0.911370 0.440705
vt 0.911370 0.352157
vt 0.926623 0.352157
vt 0.926623 0.384871
vt 0.911370 0.384871
vt 0.911370 0.398050
vt 0.926623 0.398050
vt 0.908417 0.194657
vt 0.923670 0.194657
vt 0.911370 0.466758
vt 0.926623 0.466758
vt 0.926623 0.495643
vt 0.911370 0.495643
vt 0.908417 0.174213
vt 0.923670 0.174213
vt 0.908417 0.148161
vt 0.923670 0.148161
vt 0.908417 0.119276
vt 0.923670 0.119276
vt 0.911370 0.334258
vt 0.926623 0.334258
vt 0.241862 0.233080
vt 0.196471 0.233080
vt 0.219166 0.197512
vt 0.315636 0.154843
vt 0.338331 0.119276
vt 0.361027 0.154843
vt 0.938765 0.188631
vt 0.954018 0.188631
vt 0.954018 0.230823
vt 0.938765 0.230823
vt 0.938765 0.146439
vt 0.954018 0.146439
vn -0.0000 -0.0000 1.0000
vn 0.0000 0.0000 -1.0000
vn 0.8660 -0.5000 0.0000
vn -0.8660 0.5000 0.0000
vn 0.2272 -0.9738 0.0000
vn -0.3720 0.9282 -0.0000
vn 0.9021 -0.4316 -0.0000
vn 0.6686 -0.7436 -0.0000
vn -0.9783 0.2072 -0.0000
vn 0.9971 0.0757 0.0000
vn -0.8248 0.5654 -0.0000
vn 0.9899 0.1419 -0.0000
vn -0.6521 0.7581 0.0000
vn 0.9826 -0.1857 0.0000
vn -0.4330 0.9014 0.0000
vn -0.9570 -0.2901 0.0000
vn 0.4611 -0.8873 0.0000
vn -0.9990 -0.0443 0.0000
vn 0.9974 -0.0716 0.0000
vn -0.5607 0.8280 0.0000
usemtl Material4
s 1
f 8/1/1 7/2/1 13/3/1 14/4/1
f 28/5/2 34/6/2 33/7/2 27/8/2
f 7/9/3 27/10/3 33/11/3 13/12/3
f 14/13/4 34/14/4 28/15/4 8/16/4
usemtl Material05
f 3/17/1 4/18/1 15/19/1 16/20/1
f 5/21/1 6/22/1 9/23/1 10/24/1
f 16/20/1 15/19/1 11/25/1
f 3/17/1 18/26/1 17/27/1 4/18/1
f 9/23/1 1/28/1 14/4/1
f 10/24/1 9/23/1 14/4/1 13/3/1
f 2/29/1 10/24/1 13/3/1
f 18/26/1 6/22/1 5/21/1 17/27/1
f 23/30/2 36/31/2 35/32/2 24/33/2
f 25/34/2 30/35/2 29/36/2 26/37/2
f 36/31/2 31/38/2 35/32/2
f 23/30/2 24/33/2 37/39/2 38/40/2
f 29/36/2 34/6/2 21/41/2
f 30/35/2 33/7/2 34/6/2 29/36/2
f 22/42/2 33/7/2 30/35/2
f 38/40/2 37/39/2 25/34/2 26/37/2
f 1/43/5 21/44/5 34/45/5 14/46/5
f 6/47/6 26/48/6 29/49/6 9/50/6
f 17/51/7 37/52/7 24/53/7 4/54/7
f 2/55/3 22/56/3 30/57/3 10/58/3
f 5/59/8 25/60/8 37/52/8 17/51/8
f 9/50/4 29/49/4 21/44/4 1/43/4
f 18/61/9 38/62/9 26/48/9 6/47/9
f 15/63/10 35/64/10 31/65/10 11/66/10
f 3/67/11 23/68/11 38/62/11 18/61/11
f 10/58/12 30/57/12 25/60/12 5/59/12
f 16/69/13 36/70/13 23/68/13 3/67/13
f 4/54/14 24/53/14 35/64/14 15/63/14
f 11/71/15 31/72/15 36/70/15 16/69/15
f 13/73/16 33/74/16 22/56/16 2/55/16
usemtl Material02
f 20/75/1 19/76/1 12/77/1
f 7/2/1 8/1/1 19/76/1 20/75/1
f 40/78/2 32/79/2 39/80/2
f 27/8/2 40/78/2 39/80/2 28/5/2
f 12/81/17 32/82/17 40/83/17 20/84/17
f 19/85/18 39/86/18 32/82/18 12/81/18
f 20/84/19 40/83/19 27/10/19 7/9/19
f 8/16/20 28/15/20 39/86/20 19/85/20
