# Blender v2.79 (sub 0) OBJ File: ''
# www.blender.org
mtllib speed.mtl
o Plane
v -1.024368 -0.375167 0.975741
v -1.024368 -0.375167 -1.024259
v 1.994105 -0.439269 -3.008659
v 1.994105 -0.439269 -1.008659
v -4.111161 -0.339459 -1.032699
v -4.111161 -0.339458 -3.032699
v -1.006095 0.524190 0.975741
v 2.012378 0.460089 -1.008659
v 2.012378 0.460089 -3.008659
v -1.006095 0.524190 -1.024259
v -4.092888 0.559899 -3.032699
v -4.092888 0.559899 -1.032699
vn -0.0164 -0.9999 -0.0000
vn -0.0212 -0.9998 -0.0000
vn -0.0116 -0.9999 -0.0000
vn 0.0164 0.9999 0.0000
vn 0.0212 0.9998 0.0000
vn 0.0116 0.9999 0.0000
vn -0.5453 0.0111 0.8382
vn -0.5491 0.0112 -0.8357
vn 0.5491 -0.0112 0.8357
vn 0.5453 -0.0111 -0.8382
vn -0.9998 0.0203 0.0000
vn 0.9998 -0.0203 -0.0000
usemtl Material.002
s 1
f 1//1 2//1 3//2 4//2
f 1//1 5//3 6//3 2//1
f 7//4 8//5 9//5 10//4
f 7//4 10//4 11//6 12//6
f 5//7 1//7 7//7 12//7
f 3//8 2//8 10//8 9//8
f 1//9 4//9 8//9 7//9
f 2//10 6//10 11//10 10//10
f 6//11 5//11 12//11 11//11
f 4//12 3//12 9//12 8//12
o Plane.001
v -1.018229 -0.375749 -2.245256
v -1.018229 -0.375748 -4.245256
v 1.425214 -0.441292 -6.351285
v 1.425214 -0.441292 -4.351285
v -3.621573 -0.322429 -4.304845
v -3.621573 -0.322429 -6.304845
v -0.991024 0.520115 -2.245256
v 1.452418 0.454572 -4.351285
v 1.452418 0.454572 -6.351285
v -0.991024 0.520116 -4.245256
v -3.594369 0.573436 -6.304845
v -3.594369 0.573436 -4.304845
vn -0.0236 -0.9997 -0.0000
vn -0.0237 -0.9997 -0.0000
vn -0.0268 -0.9996 -0.0000
vn -0.0205 -0.9998 -0.0000
vn 0.0236 0.9997 0.0000
vn 0.0268 0.9996 0.0000
vn 0.0237 0.9997 0.0000
vn 0.0205 0.9998 0.0000
vn -0.6201 0.0188 0.7843
vn -0.6524 0.0198 -0.7576
vn 0.6524 -0.0198 0.7576
vn 0.6201 -0.0188 -0.7843
vn -0.9995 0.0304 0.0000
vn 0.9995 -0.0304 -0.0000
usemtl Material.001
s 1
f 13//13 14//14 15//15 16//15
f 13//13 17//16 18//16 14//14
f 19//17 20//18 21//18 22//19
f 19//17 22//19 23//20 24//20
f 17//21 13//21 19//21 24//21
f 15//22 14//22 22//22 21//22
f 13//23 16//23 20//23 19//23
f 14//24 18//24 23//24 22//24
f 18//25 17//25 24//25 23//25
f 16//26 15//26 21//26 20//26
